<svg width="420" height="480" viewBox="0 0 420 480" fill="none" xmlns="http://www.w3.org/2000/svg">
  <defs>
    <linearGradient id="bg" x1="0" y1="0" x2="420" y2="480" gradientUnits="userSpaceOnUse">
      <stop offset="0%" stop-color="#111827"/>
      <stop offset="55%" stop-color="#1f2937"/>
      <stop offset="100%" stop-color="#111827"/>
    </linearGradient>
    <linearGradient id="glow" x1="210" y1="40" x2="210" y2="420" gradientUnits="userSpaceOnUse">
      <stop offset="0%" stop-color="#f472b6" stop-opacity="0.9"/>
      <stop offset="50%" stop-color="#fb7185" stop-opacity="0.3"/>
      <stop offset="100%" stop-color="#facc15" stop-opacity="0"/>
    </linearGradient>
    <filter id="soft" x="-20%" y="-20%" width="140%" height="140%">
      <feGaussianBlur stdDeviation="35" result="blur"/>
      <feMerge>
        <feMergeNode in="blur"/>
        <feMergeNode in="SourceGraphic"/>
      </feMerge>
    </filter>
  </defs>
  <rect width="420" height="480" rx="32" fill="url(#bg)"/>
  <circle cx="210" cy="220" r="150" fill="#1f2937" stroke="#fbbf24" stroke-width="2"/>
  <ellipse cx="210" cy="160" rx="160" ry="120" fill="url(#glow)" filter="url(#soft)"/>
  <path d="M110 210 C110 140 170 110 210 110 C250 110 310 140 310 210" fill="#111827"/>
  <path d="M130 230 C130 170 185 150 210 150 C235 150 290 170 290 230 L290 260 C290 320 250 370 210 370 C170 370 130 320 130 260 Z" fill="#fcd9b6"/>
  <path d="M135 235 Q210 260 285 235 L285 260 C285 320 250 355 210 355 C170 355 135 320 135 260 Z" fill="#fbc9a1"/>
  <ellipse cx="168" cy="245" rx="24" ry="20" fill="#fff" opacity="0.9"/>
  <ellipse cx="252" cy="245" rx="24" ry="20" fill="#fff" opacity="0.9"/>
  <circle cx="168" cy="245" r="10" fill="#0f172a"/>
  <circle cx="252" cy="245" r="10" fill="#0f172a"/>
  <circle cx="168" cy="245" r="3" fill="#f8fafc" opacity="0.9"/>
  <circle cx="252" cy="245" r="3" fill="#f8fafc" opacity="0.9"/>
  <path d="M150 290 Q210 320 270 290" stroke="#0f172a" stroke-width="6" stroke-linecap="round"/>
  <path d="M120 210 Q210 190 300 210" stroke="#f59e0b" stroke-width="4" stroke-linecap="round"/>
  <path d="M150 320 C180 350 240 350 270 320" stroke="#7c2d12" stroke-width="10" stroke-linecap="round"/>
  <path d="M147 323 L273 323" stroke="#fcd9b6" stroke-width="12" stroke-linecap="round"/>
  <path d="M150 340 C190 360 230 360 270 340" stroke="#7f1d1d" stroke-width="4" stroke-linecap="round"/>
  <path d="M210 370 C240 370 270 400 270 420 L150 420 C150 400 180 370 210 370 Z" fill="#0f172a"/>
  <text x="210" y="430" text-anchor="middle" fill="#fef3c7" font-family="'Space Grotesk', 'Segoe UI', sans-serif" font-size="28">Stud</text>
</svg>
